<?xml version="1.0" standalone="yes"?>

<svg version="1.1" viewBox="0.0 0.0 960.0 720.0" fill="none" stroke="none" stroke-linecap="square" stroke-miterlimit="10" xmlns="http://www.w3.org/2000/svg" xmlns:xlink="http://www.w3.org/1999/xlink"><clipPath id="p.0"><path d="m0 0l960.0 0l0 720.0l-960.0 0l0 -720.0z" clip-rule="nonzero"></path></clipPath><g clip-path="url(#p.0)"><path fill="#000000" fill-opacity="0.0" d="m0 0l960.0 0l0 720.0l-960.0 0z" fill-rule="evenodd"></path><path fill="#3f51b5" d="m172.30708 353.8399l0 0c0 -153.66563 124.5706 -278.23624 278.2362 -278.23624l0 0c73.792816 0 144.56332 29.314087 196.7427 81.49351c52.179443 52.179413 81.49353 122.949875 81.49353 196.74272l0 0c0 153.66562 -124.57062 278.2362 -278.23624 278.2362l0 0c-153.66562 0 -278.2362 -124.57059 -278.2362 -278.2362z" fill-rule="evenodd"></path><path stroke="#3f51b5" stroke-width="1.0" stroke-linejoin="round" stroke-linecap="butt" d="m172.30708 353.8399l0 0c0 -153.66563 124.5706 -278.23624 278.2362 -278.23624l0 0c73.792816 0 144.56332 29.314087 196.7427 81.49351c52.179443 52.179413 81.49353 122.949875 81.49353 196.74272l0 0c0 153.66562 -124.57062 278.2362 -278.23624 278.2362l0 0c-153.66562 0 -278.2362 -124.57059 -278.2362 -278.2362z" fill-rule="evenodd"></path><path fill="#000000" fill-opacity="0.0" d="m268.55905 169.66667l363.96854 0l0 368.34644l-363.96854 0z" fill-rule="evenodd"></path><path fill="#9e9e9e" d="m370.88718 477.36978q16.09375 0 28.125 -9.75q12.046875 -9.765625 13.34375 -24.40625l28.453125 0q-0.8125 15.125 -10.40625 28.78125q-9.59375 13.65625 -25.609375 21.796875q-16.015625 8.125 -33.90625 8.125q-35.9375 0 -57.15625 -23.984375q-21.21875 -23.984375 -21.21875 -65.609375l0 -5.03125q0 -25.703125 9.4375 -45.6875q9.4375 -20.0 27.078125 -31.0625q17.640625 -11.0625 41.703125 -11.0625q29.59375 0 49.1875 17.734375q19.59375 17.71875 20.890625 46.015625l-28.453125 0q-1.296875 -17.078125 -12.9375 -28.046875q-11.625 -10.984375 -28.6875 -10.984375q-22.921875 0 -35.53125 16.515625q-12.59375 16.5 -12.59375 47.71875l0 5.6875q0 30.40625 12.515625 46.828125q12.515625 16.421875 35.765625 16.421875zm118.710815 21.296875l0 -152.67188l-27.8125 0l0 -23.265625l27.8125 0l0 -18.046875q0 -28.28125 15.109375 -43.734375q15.1250305 -15.45311 42.765656 -15.45311q10.40625 0 20.65625 2.765625l-1.625 24.39061q-7.640625 -1.453125 -16.265625 -1.453125q-14.625 0 -22.59375 8.53125q-7.96875 8.53125 -7.96875 24.46875l0 18.53125l37.5625 0l0 23.265625l-37.5625 0l0 152.67188l-30.078156 0z" fill-rule="nonzero"></path></g></svg>

